<svg xmlns="http://www.w3.org/2000/svg" xmlns:xlink="http://www.w3.org/1999/xlink" width="501.295" height="75.413" viewBox="0 0 132.634 19.953"><path d="M5.202 0h-1.27v2.832C1.628 3.048.49 4.534.49 6.04c0 1.74 1.242 2.84 3.443 3.575v5.212c-1.232-.103-2.21-.677-2.99-1.477L0 14.393a6.11 6.11 0 0 0 3.932 1.769v2.68h1.27v-2.737c2.39-.32 3.612-1.92 3.612-3.706 0-2.295-1.722-3.358-3.612-3.97v-4.3c.94.122 1.77.527 2.493 1.204l.97-.997c-.78-.715-1.957-1.355-3.462-1.515zm-1.27 4.177v3.838c-1.383-.564-1.76-1.13-1.76-2.004 0-1.063.734-1.656 1.76-1.834zm1.27 5.88c1.43.593 1.9 1.308 1.9 2.36 0 1.317-.65 2.07-1.9 2.324z"/><use xlink:href="#B" fill="#0f0"/><use xlink:href="#B" x="11.29"/><path d="M52.84 13.8V9.05c0-1.957-1.242-3.198-3.706-3.198-.96 0-2.032.17-3.236.62l.414 1.195c1.025-.357 1.92-.508 2.578-.508 1.477 0 2.36.536 2.36 1.966v.828h-1.458c-3 0-4.647 1.13-4.647 3.17 0 1.844 1.214 3.057 3.198 3.057 1.28 0 2.4-.47 3.104-1.392.282.884.96 1.28 1.816 1.392l.386-1.1c-.555-.17-.8-.47-.8-1.27zm-4.092 1.176c-1.3 0-1.9-.64-1.9-1.872 0-1.27.8-2.08 2.982-2.08h1.43v2.55c-.593.884-1.524 1.402-2.502 1.402zm12.766-.16c-1.703 0-2.935-1.12-2.935-3.763 0-2.615 1.223-3.885 2.935-3.885.865 0 1.712.3 2.56.884L64.844 7c-.94-.762-2.04-1.148-3.3-1.148-2.973 0-4.666 2.23-4.666 5.202 0 3.104 1.684 5.127 4.647 5.127 1.166 0 2.483-.46 3.35-1.195l-.77-1.035c-.734.508-1.58.865-2.578.865zm8.494-12.944l-1.58.198v13.894h1.58zm6.613 4.186h-2.05l-4.384 4.497 4.873 5.4h2.08l-4.976-5.447zm6.85-3.988h-4.62v1.25h3.04v10.113c0 1.722 1.195 2.747 2.954 2.747.997 0 1.816-.245 2.352-.508l-.423-1.157c-.536.216-1.072.348-1.665.348-.96 0-1.637-.367-1.637-1.345zm11.185-.65c-.668 0-1.138.48-1.138 1.1 0 .64.47 1.13 1.138 1.13a1.09 1.09 0 0 0 1.157-1.129c0-.62-.452-1.1-1.157-1.1zm1.26 4.638H91.37v1.25h2.963v7.403h-3.057v1.25H98.7v-1.25h-2.794zm14.328-1.053c-1.166.508-2.013.828-4.515.837-2.333 0-3.95 1.44-3.95 3.443 0 1.27.527 2.135 1.665 2.737-.715.47-1.1 1.1-1.1 1.73 0 .978.78 1.863 2.493 1.863h1.77c1.28 0 2.24.48 2.24 1.42 0 1.082-.96 1.627-3.142 1.627-2.22 0-2.747-.536-2.747-1.693h-1.43c0 2.013 1.025 2.982 4.186 2.982 3 0 4.732-1.072 4.732-3.02 0-1.524-1.505-2.7-3.5-2.7h-1.787c-1.025 0-1.326-.357-1.326-.828 0-.376.216-.753.517-.96.414.132.8.188 1.477.188 2.342 0 3.725-1.4 3.725-3.368 0-1.13-.574-1.966-1.722-2.493 1.1 0 2.05-.028 2.897-.292zM105.727 7c1.45 0 2.192.78 2.192 2.277 0 1.458-.762 2.314-2.154 2.314-1.618 0-2.37-.96-2.37-2.305 0-1.326.734-2.286 2.333-2.286zm9.333-5.08l-1.58.17v13.876h1.58V8.75c.517-.78 1.524-1.656 2.653-1.656 1.176 0 1.712.527 1.712 1.712v7.16h1.58V8.768c0-1.825-.847-2.916-2.785-2.916-1.166 0-2.38.527-3.16 1.562zm17.572 13.545l-.6-1.072a4 4 0 0 1-1.9.47c-1.355 0-1.9-.593-1.9-1.693v-5.9h3.236l.188-1.223h-3.424V3.622l-1.58.188v2.248h-2.277V7.28h2.277v5.908c0 1.75 1.204 3 3.33 3 .922 0 1.976-.273 2.653-.715z"/><defs ><path id="B" d="M24.75 7.347V1.872l-1.58.198v13.894h1.383l.113-1.025c.668.847 1.552 1.242 2.7 1.242 2.56 0 3.923-2.173 3.923-5.174 0-3.104-1.063-5.155-3.716-5.155-1.138 0-2.098.546-2.822 1.496zm2.24 7.554c-.903 0-1.722-.49-2.24-1.28V8.71c.536-.8 1.373-1.6 2.483-1.6 1.524 0 2.333 1.29 2.333 3.876 0 2.643-.922 3.904-2.578 3.904z"/></defs></svg>
